<svg width="490" height="141" viewBox="0 0 490 141" fill="none" xmlns="http://www.w3.org/2000/svg">
<path d="M49.7328 54.6991H60.5971V84H68.0133V54.6991H78.8777V48.5131H49.7328V54.6991ZM80.7751 84H88.1567V68.9423C88.1567 65.6674 90.5479 63.4148 93.8054 63.4148C94.8278 63.4148 96.2313 63.5881 96.9244 63.8134V57.2636C96.266 57.1076 95.3476 57.0036 94.6025 57.0036C91.6222 57.0036 89.179 58.7364 88.2086 62.0286H87.9314V57.3848H80.7751V84ZM107.568 84.5025C111.501 84.5025 114.048 82.7871 115.348 80.3092H115.556V84H122.556V66.0486C122.556 59.7067 117.185 57.0383 111.259 57.0383C104.882 57.0383 100.689 60.0879 99.6665 64.9397L106.494 65.4942C106.996 63.7267 108.573 62.4272 111.224 62.4272C113.736 62.4272 115.175 63.6921 115.175 65.8754V65.9793C115.175 67.6948 113.355 67.92 108.729 68.3705C103.461 68.8557 98.7308 70.6231 98.7308 76.5665C98.7308 81.8341 102.491 84.5025 107.568 84.5025ZM109.682 79.4082C107.412 79.4082 105.783 78.3512 105.783 76.3239C105.783 74.2446 107.499 73.2222 110.098 72.8584C111.709 72.6331 114.343 72.2519 115.227 71.6628V74.4872C115.227 77.2769 112.922 79.4082 109.682 79.4082ZM135.665 68.6131C135.682 65.1823 137.727 63.1723 140.707 63.1723C143.67 63.1723 145.455 65.1129 145.437 68.3705V84H152.819V67.0536C152.819 60.8504 149.18 57.0383 143.635 57.0383C139.685 57.0383 136.825 58.979 135.63 62.0806H135.318V57.3848H128.283V84H135.665V68.6131ZM180.781 64.9743C180.123 60.0706 176.172 57.0383 169.449 57.0383C162.639 57.0383 158.151 60.1919 158.169 65.3209C158.151 69.3062 160.664 71.888 165.862 72.9277L170.471 73.846C172.793 74.3139 173.85 75.1629 173.885 76.4972C173.85 78.074 172.135 79.2003 169.553 79.2003C166.919 79.2003 165.169 78.074 164.719 75.908L157.458 76.2892C158.151 81.3835 162.483 84.5198 169.536 84.5198C176.432 84.5198 181.37 81.0023 181.388 75.7521C181.37 71.9054 178.858 69.6008 173.694 68.5438L168.877 67.5735C166.399 67.0363 165.481 66.1873 165.498 64.905C165.481 63.3109 167.283 62.2712 169.57 62.2712C172.135 62.2712 173.66 63.6748 174.023 65.3902L180.781 64.9743ZM193.625 84.5025C197.559 84.5025 200.106 82.7871 201.405 80.3092H201.613V84H208.614V66.0486C208.614 59.7067 203.242 57.0383 197.316 57.0383C190.939 57.0383 186.746 60.0879 185.724 64.9397L192.551 65.4942C193.053 63.7267 194.63 62.4272 197.281 62.4272C199.794 62.4272 201.232 63.6921 201.232 65.8754V65.9793C201.232 67.6948 199.413 67.92 194.786 68.3705C189.519 68.8557 184.788 70.6231 184.788 76.5665C184.788 81.8341 188.548 84.5025 193.625 84.5025ZM195.739 79.4082C193.469 79.4082 191.841 78.3512 191.841 76.3239C191.841 74.2446 193.556 73.2222 196.155 72.8584C197.767 72.6331 200.4 72.2519 201.284 71.6628V74.4872C201.284 77.2769 198.979 79.4082 195.739 79.4082ZM226.366 84.5198C233.453 84.5198 237.906 80.3612 238.252 74.2446H231.287C230.854 77.0863 228.982 78.6804 226.452 78.6804C223.004 78.6804 220.769 75.7867 220.769 70.6924C220.769 65.6674 223.021 62.791 226.452 62.791C229.155 62.791 230.888 64.5758 231.287 67.2269H238.252C237.941 61.0756 233.279 57.0383 226.331 57.0383C218.256 57.0383 213.266 62.6351 213.266 70.7964C213.266 78.8884 218.17 84.5198 226.366 84.5198ZM257.135 57.3848H252.127V51.0083H244.746V57.3848H241.107V62.9297H244.746V76.7917C244.711 82.0073 248.263 84.5891 253.618 84.3639C255.524 84.2946 256.875 83.9134 257.62 83.6708L256.459 78.1779C256.095 78.2472 255.316 78.4205 254.623 78.4205C253.15 78.4205 252.127 77.866 252.127 75.8214V62.9297H257.135V57.3848Z" fill="#1E266D"/>
<path d="M298.695 60.1053H307.376C306.51 53.0356 300.203 48.028 291.99 48.028C282.511 48.028 275.026 54.6991 275.026 66.3085C275.026 77.5368 281.922 84.4852 292.094 84.4852C301.225 84.4852 307.758 78.8191 307.758 69.2889V64.5931H292.457V70.8484H299.492C299.406 74.5911 296.807 76.965 292.163 76.965C286.843 76.965 283.776 73.0316 283.776 66.2046C283.776 59.4295 287.017 55.5481 292.163 55.5481C295.594 55.5481 297.933 57.2289 298.695 60.1053ZM320.316 84.4505C324.024 84.4505 326.588 83.0123 328.044 80.2919H328.252V84H336.223V65.91C336.223 60.2785 331.215 57.0383 324.44 57.0383C317.283 57.0383 313.229 60.6424 312.553 65.4942L320.368 65.7714C320.732 64.0733 322.135 63.0336 324.37 63.0336C326.45 63.0336 327.767 64.0386 327.767 65.8234V65.91C327.767 67.5388 325.999 67.8854 321.459 68.2839C316.071 68.7344 311.565 70.7271 311.565 76.6185C311.565 81.886 315.222 84.4505 320.316 84.4505ZM322.932 78.9057C320.974 78.9057 319.588 77.97 319.588 76.2026C319.588 74.4872 320.94 73.4475 323.348 73.0836C324.925 72.8584 326.866 72.5118 327.819 72.0093V74.5391C327.819 77.1383 325.635 78.9057 322.932 78.9057ZM356.426 57.3848H351.627V51.0083H343.154V57.3848H339.636V63.6228H343.154V76.5665C343.102 81.9553 346.602 84.6584 352.58 84.3812C354.624 84.2772 356.097 83.8614 356.912 83.6188L355.629 77.5022C355.266 77.5888 354.416 77.7621 353.775 77.7621C352.406 77.7621 351.627 77.2076 351.627 75.6308V63.6228H356.426V57.3848ZM372.905 84.5025C379.888 84.5025 384.48 81.1236 385.45 75.8907L377.67 75.6654C377.012 77.4328 375.279 78.3859 373.061 78.3859C369.803 78.3859 367.793 76.2199 367.793 72.9623V72.7371H385.537V70.6231C385.537 61.8554 380.2 57.0383 372.645 57.0383C364.605 57.0383 359.441 62.5485 359.441 70.7964C359.441 79.3216 364.536 84.5025 372.905 84.5025ZM367.793 67.816C367.915 65.1649 370.011 63.1549 372.818 63.1549C375.608 63.1549 377.618 65.0956 377.653 67.816H367.793ZM394.551 84H403.631L407.79 68.4918H408.084L412.243 84H421.305L428.254 57.3848H419.746L416.263 74.3139H416.038L412.087 57.3848H403.787L399.94 74.4352H399.715L396.128 57.3848H387.62L394.551 84ZM439.157 84.4505C442.865 84.4505 445.43 83.0123 446.885 80.2919H447.093V84H455.064V65.91C455.064 60.2785 450.056 57.0383 443.281 57.0383C436.125 57.0383 432.07 60.6424 431.394 65.4942L439.209 65.7714C439.573 64.0733 440.976 63.0336 443.212 63.0336C445.291 63.0336 446.608 64.0386 446.608 65.8234V65.91C446.608 67.5388 444.84 67.8854 440.301 68.2839C434.912 68.7344 430.407 70.7271 430.407 76.6185C430.407 81.886 434.063 84.4505 439.157 84.4505ZM441.773 78.9057C439.815 78.9057 438.429 77.97 438.429 76.2026C438.429 74.4872 439.781 73.4475 442.189 73.0836C443.766 72.8584 445.707 72.5118 446.66 72.0093V74.5391C446.66 77.1383 444.477 78.9057 441.773 78.9057ZM464.473 93.9807C470.572 93.9807 473.604 90.8964 475.077 86.5472L485.11 57.4022L476.186 57.3848L471.213 76.3759H470.936L466.032 57.3848H457.16L466.621 84.9703L466.292 85.7674C465.478 87.7601 463.641 87.7947 461.146 86.9803L459.274 93.1316C460.557 93.6515 462.445 93.9807 464.473 93.9807Z" fill="#FF6C02"/>
<path d="M55.2268 114.565L29.5644 70.0865L55.2268 25.6085L69.9989 0H40.4345L0 70.0865L40.4345 140.173H69.9989L55.2268 114.565Z" fill="#1E266D"/>
<path d="M75.3679 0.371338L60.5144 25.1272H106.175L123.779 52.0835H151.286L121.029 0.371338H75.3679Z" fill="#FF6C02"/>
<path d="M75.3679 139.554L60.5144 114.798H106.175L123.779 87.842H151.286L121.029 139.554H75.3679Z" fill="#FF6C02"/>
</svg>
